# xmcd
#
# Track frame offsets:
#	150
#	15996
#	29683
#	61844
#	80543
#	106805
#	126815
#	144049
#	162636
#	179527
#	193789
#	216091
#	236610
#
# Disc length: 3344 seconds
#
# Revision: 1
# Processed by: cddbd v1.5PL3 Copyright (c) Steve Scherf et al.
# Submitted via: EasyCDDAExtractor 7.0.5.1
#
DISCID=ad0d0e0d
DTITLE=Tab Benoit - These Blues Are All Mine
DYEAR=1999
DGENRE=Blues
TTITLE0=I'm Tired
TTITLE1=Corsscut Saw
TTITLE2=The Blues Are All Mine
TTITLE3=Lights Are on But Nobody's Home
TTITLE4=Raided That Joint
TTITLE5=Crawfishin'
TTITLE6=Mother Earth
TTITLE7=Don't Lose Your Cool
TTITLE8=Jambalaya (On The Bayou
TTITLE9=Twenty-Nine Ways to My Baby's Door
TTITLE10=Keep Yourself From Crying Too
TTITLE11=Travelin' South
TTITLE12=Bayou Boogie
EXTD=
EXTT0=
EXTT1=
EXTT2=
EXTT3=
EXTT4=
EXTT5=
EXTT6=
EXTT7=
EXTT8=
EXTT9=
EXTT10=
EXTT11=
EXTT12=
PLAYORDER=
